<svg width="95" height="43" viewBox="0 0 95 43" fill="none" xmlns="http://www.w3.org/2000/svg">
<path d="M29.7328 13.0864C28.9087 10.2186 27.1287 7.77932 24.7883 6.0982C24.0302 2.60409 20.9316 0 17.2398 0C13.5479 0 10.4493 2.60409 9.69119 6.0982C7.31783 7.77932 5.57078 10.2186 4.7467 13.0864C1.81298 16.1849 0 20.3383 0 24.9202C0 34.4136 7.74636 42.16 17.2398 42.16C26.7332 42.16 34.4795 34.4136 34.4795 24.9202C34.4795 20.3383 32.6665 16.1849 29.7328 13.0864ZM17.2398 41.1051C8.33969 41.1051 1.08779 33.8532 1.08779 24.9532C1.08779 21.3272 2.30743 17.965 4.31818 15.262C4.25226 15.7235 4.25225 16.2179 4.25225 16.7124C4.21929 23.8324 10.0538 29.6669 17.2398 29.6669C24.3928 29.6669 30.2273 23.8324 30.2273 16.6794C30.2273 16.1849 30.1943 15.7235 30.1613 15.229C32.2051 17.932 33.3917 21.2942 33.3917 24.9202C33.3917 33.8532 26.1398 41.1051 17.2398 41.1051ZM17.2398 1.08779C20.0087 1.08779 22.415 2.80187 23.4039 5.24115C21.5579 4.25225 19.4813 3.69188 17.2398 3.69188C14.9983 3.69188 12.9216 4.25225 11.0756 5.24115C12.0645 2.80187 14.4379 1.08779 17.2398 1.08779ZM10.5812 7.71339C10.5812 7.38376 10.6142 7.05413 10.6471 6.7245C12.526 5.47189 14.8005 4.7467 17.2068 4.7467C19.6461 4.7467 21.8876 5.47189 23.7665 6.7245C23.7994 7.05413 23.8324 7.38376 23.8324 7.71339C23.8324 8.14192 23.7994 8.57044 23.7006 8.99896C21.6898 8.17488 19.4813 7.71339 17.1738 7.71339C14.8664 7.71339 12.6579 8.17488 10.6471 8.99896C10.6471 8.57044 10.5812 8.14192 10.5812 7.71339ZM17.2398 8.76822C19.4483 8.76822 21.5579 9.2297 23.4698 10.0208C22.5139 12.559 20.1076 14.339 17.2398 14.339C14.4049 14.339 11.9656 12.526 11.0097 10.0208C12.9216 9.2297 15.0312 8.76822 17.2398 8.76822ZM10.0208 10.4823C11.1416 13.3831 13.9434 15.4268 17.2068 15.4268C20.4702 15.4268 23.305 13.3501 24.3928 10.4823C26.008 11.3064 27.4584 12.3612 28.711 13.6468C28.9747 14.6357 29.1065 15.6575 29.1065 16.7124C29.1065 23.305 23.7665 28.645 17.1738 28.645C10.5812 28.645 5.24115 23.305 5.24115 16.7124C5.24115 15.6575 5.373 14.6357 5.63671 13.6468C6.95524 12.3612 8.40562 11.2734 10.0208 10.4823ZM24.7554 9.42748C24.8872 8.86711 24.9532 8.30673 24.9532 7.71339C24.9532 7.68043 24.9532 7.6145 24.9532 7.58154C26.2058 8.63636 27.2276 9.95489 27.9858 11.4712C26.9639 10.6801 25.9091 9.98786 24.7554 9.42748ZM9.72415 9.42748C8.57044 9.98786 7.51561 10.6801 6.52672 11.4712C7.25191 9.98785 8.30673 8.66933 9.55933 7.58154C9.55933 7.6145 9.55933 7.68043 9.55933 7.71339C9.52637 8.30673 9.5923 8.86711 9.72415 9.42748Z" fill="black"/>
<path d="M48.0608 16.3168C49.6431 16.3168 50.8957 16.6464 51.8516 17.3386C52.8075 17.9979 53.269 19.0198 53.269 20.3053C53.269 21.6238 52.8075 22.6127 51.8516 23.272C50.8957 23.9313 49.6431 24.2939 48.0608 24.2939H43.4789V29.3702C43.4789 29.6669 43.3141 29.7987 42.9515 29.7987H42.556C42.2263 29.7987 42.0615 29.6669 42.0615 29.3702V16.7783C42.0615 16.4816 42.2263 16.3497 42.556 16.3497H48.0608V16.3168ZM43.4789 23.1402H47.929C49.2475 23.1402 50.2364 22.9094 50.8627 22.415C51.489 21.9205 51.8186 21.2283 51.8186 20.3053C51.8186 19.3824 51.489 18.6901 50.8627 18.1957C50.2364 17.7012 49.2475 17.4705 47.929 17.4705H43.4789V23.1402Z" fill="black"/>
<path d="M65.5637 28.645C65.9263 28.645 66.0911 28.7769 66.0911 29.0736V29.3702C66.0911 29.6669 65.9263 29.7988 65.5637 29.7988H56.5648C56.2351 29.7988 56.0703 29.6669 56.0703 29.3702V16.7783C56.0703 16.4816 56.2351 16.3498 56.5648 16.3498H65.3989C65.7615 16.3498 65.9263 16.4816 65.9263 16.7783V17.075C65.9263 17.3716 65.7615 17.5035 65.3989 17.5035H57.4877V22.415H64.9045C65.267 22.415 65.4319 22.5468 65.4319 22.8435V23.1402C65.4319 23.4369 65.267 23.5687 64.9045 23.5687H57.4877V28.678H65.5637V28.645Z" fill="black"/>
<path d="M78.4855 26.4365H70.4755L69.058 29.5021C69.0251 29.568 68.9592 29.601 68.8932 29.6999C68.8273 29.7658 68.6954 29.7988 68.5636 29.7988H68.1021C67.9703 29.7988 67.8714 29.7658 67.7725 29.6669C67.6736 29.601 67.6406 29.5021 67.6406 29.4032C67.6406 29.3373 67.6406 29.2713 67.6736 29.2054L73.4092 16.7124C73.4751 16.5805 73.541 16.4816 73.6399 16.4157C73.7388 16.3498 73.8707 16.3168 74.0685 16.3168H74.8266C74.9914 16.3168 75.1562 16.3498 75.2551 16.4157C75.354 16.4816 75.4199 16.5805 75.4859 16.7124L81.2215 29.2054C81.2544 29.2713 81.2544 29.3373 81.2544 29.4032C81.2544 29.5021 81.2215 29.601 81.1226 29.6669C81.0237 29.7328 80.9248 29.7988 80.793 29.7988H80.3315C80.1666 29.7988 80.0678 29.7658 80.0018 29.6999C79.9359 29.6339 79.87 29.568 79.837 29.5021L78.4855 26.4365ZM71.0029 25.2828H77.9251L74.464 17.7013L71.0029 25.2828Z" fill="black"/>
<path d="M89.4951 16.3168C91.0774 16.3168 92.33 16.6464 93.2859 17.2727C94.2418 17.899 94.7033 18.8879 94.7033 20.2065C94.7033 21.2613 94.4066 22.0854 93.8133 22.6787C93.22 23.272 92.3629 23.7006 91.2751 23.9313L94.9341 29.2054C94.967 29.2713 95 29.3373 95 29.4032C95 29.5021 94.967 29.601 94.8681 29.6669C94.7692 29.7328 94.6703 29.7988 94.5385 29.7988H94.2748C94.0111 29.7988 93.8463 29.7328 93.7144 29.6339C93.6155 29.5351 93.4837 29.4032 93.4177 29.2713L89.8248 24.0961H85.144V29.3702C85.144 29.6669 84.9792 29.7988 84.6166 29.7988H84.221C83.8914 29.7988 83.7266 29.6669 83.7266 29.3702V16.7783C83.7266 16.4816 83.8914 16.3498 84.221 16.3498H89.4951V16.3168ZM85.1769 22.9424H89.3962C92.0003 22.9424 93.2859 22.0194 93.2859 20.2065C93.2859 18.3935 92.0003 17.4705 89.3962 17.4705H85.1769V22.9424Z" fill="black"/>
</svg>
