<svg width="24" height="24" viewBox="0 0 24 24" fill="none" xmlns="http://www.w3.org/2000/svg">
<path d="M12 24C18.6274 24 24 18.6274 24 12C24 5.37258 18.6274 0 12 0C5.37258 0 0 5.37258 0 12C0 18.6274 5.37258 24 12 24Z" fill="#010201"/>
<path d="M17.849 7.1289C17.7957 6.98668 17.7423 6.95113 17.6712 6.93335C17.4757 6.86224 17.1734 6.96891 17.1734 6.96891C17.1734 6.96891 5.93788 10.9867 5.29788 11.4311C5.15566 11.52 5.1201 11.5911 5.08455 11.6445C4.97788 11.9645 5.31566 12.1067 5.31566 12.1067L8.21344 13.0489C8.21344 13.0489 8.3201 13.0667 8.35566 13.0489C9.01344 12.64 14.969 8.87113 15.3068 8.74668C15.3601 8.72891 15.3957 8.74668 15.3957 8.78224C15.2712 9.26224 10.0979 13.8667 10.0979 13.8667C10.0979 13.8667 10.0801 13.8845 10.0623 13.92L9.77788 16.7822C9.77788 16.7822 9.67121 17.6534 10.5423 16.7822C11.1645 16.16 11.769 15.6445 12.0534 15.3956C13.049 16.0889 14.1157 16.8356 14.5779 17.2445C14.809 17.44 15.0045 17.4756 15.1645 17.4756C15.609 17.4578 15.7334 16.9778 15.7334 16.9778C15.7334 16.9778 17.7779 8.74668 17.849 7.64446C17.849 7.53779 17.8668 7.46668 17.8668 7.39557C17.8668 7.27113 17.8668 7.18224 17.849 7.1289Z" fill="white"/>
</svg>
