<svg width="63" height="63" viewBox="0 0 63 63" fill="none" xmlns="http://www.w3.org/2000/svg">
<path d="M31.5 63C48.897 63 63 48.897 63 31.5C63 14.103 48.897 0 31.5 0C14.103 0 0 14.103 0 31.5C0 48.897 14.103 63 31.5 63Z" fill="#F1FF68"/>
<path d="M46.8543 18.7132C46.7143 18.3399 46.5743 18.2466 46.3876 18.1999C45.8743 18.0132 45.081 18.2932 45.081 18.2932C45.081 18.2932 15.5876 28.8399 13.9076 30.0066C13.5343 30.2399 13.441 30.4266 13.3476 30.5666C13.0676 31.4066 13.9543 31.7799 13.9543 31.7799L21.561 34.2532C21.561 34.2532 21.841 34.2999 21.9343 34.2532C23.661 33.1799 39.2943 23.2866 40.181 22.9599C40.321 22.9132 40.4143 22.9599 40.4143 23.0532C40.0876 24.3132 26.5076 36.3999 26.5076 36.3999C26.5076 36.3999 26.461 36.4466 26.4143 36.5399L25.6676 44.0532C25.6676 44.0532 25.3876 46.3399 27.6743 44.0532C29.3076 42.4199 30.8943 41.0666 31.641 40.4132C34.2543 42.2332 37.0543 44.1932 38.2676 45.2666C38.8743 45.7799 39.3876 45.8732 39.8076 45.8732C40.9743 45.8266 41.301 44.5666 41.301 44.5666C41.301 44.5666 46.6676 22.9599 46.8543 20.0666C46.8543 19.7866 46.901 19.5999 46.901 19.4132C46.901 19.0866 46.901 18.8532 46.8543 18.7132Z" fill="black"/>
</svg>
