<svg width="25" height="24" viewBox="0 0 25 24" fill="none" xmlns="http://www.w3.org/2000/svg">
<path d="M12.3004 24C18.8089 24 24.0851 18.6274 24.0851 12C24.0851 5.37258 18.8089 0 12.3004 0C5.79184 0 0.515625 5.37258 0.515625 12C0.515625 18.6274 5.79184 24 12.3004 24Z" fill="white"/>
<path d="M19.7207 15.8932C19.7033 15.9288 19.7033 15.9466 19.6858 15.9821C19.616 16.2132 19.4588 16.3377 19.2144 16.3377C18.4462 16.3377 17.6606 16.3554 16.8924 16.3377C16.3861 16.3377 15.9845 16.071 15.6528 15.7154C15.3385 15.3599 15.0243 15.0043 14.6926 14.6666C14.6053 14.5777 14.518 14.5066 14.4132 14.4354C14.1164 14.2399 13.8371 14.311 13.6974 14.631C13.5927 14.8977 13.5403 15.1821 13.4879 15.4666C13.453 15.591 13.4704 15.7332 13.453 15.8577C13.4181 16.1421 13.2609 16.3021 12.9816 16.3377C12.4578 16.391 11.9341 16.3732 11.4103 16.2843C9.82154 16.0354 8.65179 15.1288 7.69155 13.8843C6.78369 12.6932 6.05042 11.3954 5.40444 10.0443C5.17747 9.58211 4.96796 9.10211 4.75846 8.63989C4.56641 8.19544 4.68862 7.98211 5.17747 7.98211C5.85837 7.98211 6.55672 7.98211 7.23762 7.98211C7.51696 7.98211 7.70901 8.10655 7.83122 8.35544C7.98835 8.67544 8.11056 8.99544 8.26769 9.31544C8.63433 10.0799 9.03589 10.8088 9.55965 11.4666C9.66441 11.591 9.78662 11.7154 9.92629 11.8043C10.1533 11.9643 10.3453 11.911 10.4501 11.6443C10.5199 11.431 10.5723 11.2177 10.5897 10.9866C10.6596 10.311 10.6421 9.65322 10.5374 8.99544C10.485 8.60433 10.258 8.37322 9.89137 8.26655C9.64695 8.19544 9.62949 8.15989 9.80408 7.96433C9.97867 7.76878 10.1882 7.66211 10.4501 7.66211C11.2532 7.66211 12.0563 7.66211 12.8419 7.66211C13.2086 7.66211 13.4181 7.911 13.4355 8.33767C13.4355 8.53322 13.4355 8.72878 13.4355 8.94211C13.4355 9.63544 13.4355 10.3288 13.4355 11.0221C13.4355 11.1999 13.4704 11.3777 13.5228 11.5554C13.6625 11.911 13.9418 11.9821 14.1863 11.6977C14.5005 11.3243 14.8148 10.9154 15.0941 10.5066C15.4957 9.88433 15.8099 9.191 16.0893 8.49766C16.1242 8.42655 16.1591 8.33767 16.194 8.26655C16.2813 8.08878 16.421 7.99989 16.5956 7.99989C17.4685 7.99989 18.3589 7.99989 19.2319 7.99989C19.4239 7.99989 19.616 8.071 19.7207 8.26655C19.7207 8.35544 19.7207 8.44433 19.7207 8.53322C19.5112 9.20878 19.1097 9.79544 18.7081 10.3466C18.3415 10.8621 17.9574 11.3777 17.5733 11.8932C17.486 12.0177 17.4162 12.1243 17.3463 12.2666C17.2241 12.5154 17.2416 12.7466 17.4162 12.9599C17.5035 13.0666 17.5907 13.1732 17.6955 13.2621C18.0272 13.5999 18.3939 13.9199 18.7081 14.2754C19.1097 14.7021 19.5287 15.1466 19.7207 15.7332C19.7207 15.7688 19.7207 15.8399 19.7207 15.8932Z" fill="#010201"/>
</svg>
