<svg width="24" height="24" viewBox="0 0 24 24" fill="none" xmlns="http://www.w3.org/2000/svg">
<path d="M12 24C18.6274 24 24 18.6274 24 12C24 5.37258 18.6274 0 12 0C5.37258 0 0 5.37258 0 12C0 18.6274 5.37258 24 12 24Z" fill="#010201"/>
<path d="M19.5557 15.8933C19.5379 15.9289 19.5379 15.9467 19.5201 15.9822C19.449 16.2133 19.289 16.3378 19.0401 16.3378C18.2579 16.3378 17.4579 16.3555 16.6757 16.3378C16.1601 16.3378 15.7512 16.0711 15.4134 15.7155C15.0934 15.36 14.7734 15.0044 14.4357 14.6667C14.3468 14.5778 14.2579 14.5067 14.1512 14.4355C13.849 14.24 13.5645 14.3111 13.4223 14.6311C13.3157 14.8978 13.2623 15.1822 13.209 15.4667C13.1734 15.5911 13.1912 15.7333 13.1734 15.8578C13.1379 16.1422 12.9779 16.3022 12.6934 16.3378C12.1601 16.3911 11.6268 16.3733 11.0934 16.2844C9.47565 16.0355 8.28454 15.1289 7.30676 13.8844C6.38232 12.6933 5.63565 11.3955 4.97787 10.0444C4.74676 9.58222 4.53343 9.10222 4.3201 8.63999C4.12454 8.19555 4.24899 7.98222 4.74676 7.98222C5.4401 7.98222 6.15121 7.98222 6.84454 7.98222C7.12899 7.98222 7.32454 8.10666 7.44899 8.35555C7.60899 8.67555 7.73343 8.99555 7.89343 9.31555C8.26676 10.08 8.67565 10.8089 9.20899 11.4667C9.31565 11.5911 9.4401 11.7155 9.58232 11.8044C9.81343 11.9644 10.009 11.9111 10.1157 11.6444C10.1868 11.4311 10.2401 11.2178 10.2579 10.9867C10.329 10.3111 10.3112 9.65333 10.2045 8.99555C10.1512 8.60444 9.9201 8.37333 9.54676 8.26666C9.29788 8.19555 9.2801 8.15999 9.45788 7.96444C9.63565 7.76888 9.84899 7.66222 10.1157 7.66222C10.9334 7.66222 11.7512 7.66222 12.5512 7.66222C12.9245 7.66222 13.1379 7.91111 13.1557 8.33777C13.1557 8.53333 13.1557 8.72888 13.1557 8.94222C13.1557 9.63555 13.1557 10.3289 13.1557 11.0222C13.1557 11.2 13.1912 11.3778 13.2445 11.5555C13.3868 11.9111 13.6712 11.9822 13.9201 11.6978C14.2401 11.3244 14.5601 10.9155 14.8445 10.5067C15.2534 9.88444 15.5734 9.19111 15.8579 8.49777C15.8934 8.42666 15.929 8.33777 15.9645 8.26666C16.0534 8.08888 16.1957 7.99999 16.3734 7.99999C17.2623 7.99999 18.169 7.99999 19.0579 7.99999C19.2534 7.99999 19.449 8.07111 19.5557 8.26666C19.5557 8.35555 19.5557 8.44444 19.5557 8.53333C19.3423 9.20888 18.9334 9.79555 18.5245 10.3467C18.1512 10.8622 17.7601 11.3778 17.369 11.8933C17.2801 12.0178 17.209 12.1244 17.1379 12.2667C17.0134 12.5155 17.0312 12.7467 17.209 12.96C17.2979 13.0667 17.3868 13.1733 17.4934 13.2622C17.8312 13.6 18.2045 13.92 18.5245 14.2755C18.9334 14.7022 19.3601 15.1467 19.5557 15.7333C19.5557 15.7689 19.5557 15.84 19.5557 15.8933Z" fill="white"/>
</svg>
