<svg width="63" height="63" viewBox="0 0 63 63" fill="none" xmlns="http://www.w3.org/2000/svg">
<path d="M31.5 63C48.897 63 63 48.897 63 31.5C63 14.103 48.897 0 31.5 0C14.103 0 0 14.103 0 31.5C0 48.897 14.103 63 31.5 63Z" fill="#F1FF68"/>
<path fill-rule="evenodd" clip-rule="evenodd" d="M46.6672 16.7533C42.8872 12.9733 37.8939 10.92 32.5272 10.8733C21.5139 10.8733 12.5539 19.8333 12.5539 30.8466C12.5539 34.3466 13.4872 37.8 15.2139 40.8333L12.3672 51.1933L22.9605 48.3933C25.9005 49.98 29.1672 50.82 32.5272 50.82C43.5405 50.82 52.5005 41.86 52.5005 30.8466C52.5005 25.5266 50.4472 20.5333 46.6672 16.7533ZM32.5272 47.46C29.5405 47.46 26.6005 46.6666 24.0805 45.1266L23.4739 44.8L17.1739 46.4333L18.8539 40.32L18.4339 39.6666C16.7539 37.0066 15.9139 33.9733 15.9139 30.8466C15.9139 21.7 23.3805 14.2333 32.5272 14.2333C36.9605 14.2333 41.1139 15.96 44.2872 19.0866C47.4139 22.2133 49.1405 26.4133 49.1405 30.8466C49.1405 40.04 41.6739 47.46 32.5272 47.46ZM41.6272 35.0466C41.1139 34.8133 38.6872 33.6 38.2205 33.4133C37.7539 33.2266 37.4272 33.18 37.1005 33.6466C36.7739 34.16 35.7939 35.28 35.5139 35.6066C35.2339 35.9333 34.9539 35.98 34.4405 35.7466C33.9272 35.5133 32.3405 34.9533 30.4272 33.2733C28.9339 31.9666 27.9539 30.3333 27.6272 29.82C27.3472 29.3066 27.5805 29.0733 27.8605 28.7933C28.0939 28.56 28.3739 28.2333 28.6072 27.9066C28.8405 27.6266 28.9339 27.3933 29.1205 27.0666C29.3072 26.74 29.2139 26.46 29.0739 26.18C28.9339 25.9466 27.9539 23.4733 27.5339 22.4933C27.1139 21.5133 26.6939 21.6533 26.4139 21.6533C26.1339 21.6533 25.8072 21.6533 25.4339 21.6533C25.1072 21.6533 24.5472 21.7933 24.0805 22.26C23.6139 22.7733 22.3539 23.9866 22.3539 26.4133C22.3539 28.8866 24.1272 31.2666 24.4072 31.5933C24.6405 31.92 27.9072 36.96 32.9472 39.1533C34.1605 39.6666 35.0472 39.9933 35.7939 40.2266C37.0072 40.6 38.0805 40.5533 38.9205 40.4133C39.9005 40.2733 41.8605 39.2 42.2805 38.0333C42.7005 36.8666 42.7005 35.8866 42.5605 35.6533C42.4672 35.42 42.1405 35.28 41.6272 35.0466Z" fill="black"/>
</svg>
