<svg width="24" height="24" viewBox="0 0 24 24" fill="none" xmlns="http://www.w3.org/2000/svg">
<path d="M12 24C18.6274 24 24 18.6274 24 12C24 5.37258 18.6274 0 12 0C5.37258 0 0 5.37258 0 12C0 18.6274 5.37258 24 12 24Z" fill="#010201"/>
<path fill-rule="evenodd" clip-rule="evenodd" d="M17.7778 6.38224C16.3378 4.94224 14.4356 4.16002 12.3912 4.14224C8.19563 4.14224 4.78229 7.55558 4.78229 11.7511C4.78229 13.0845 5.13785 14.4 5.79563 15.5556L4.71118 19.5022L8.74674 18.4356C9.86674 19.04 11.1112 19.36 12.3912 19.36C16.5867 19.36 20.0001 15.9467 20.0001 11.7511C20.0001 9.72446 19.2178 7.82224 17.7778 6.38224ZM12.3912 18.08C11.2534 18.08 10.1334 17.7778 9.1734 17.1911L8.94229 17.0667L6.54229 17.6889L7.18229 15.36L7.02229 15.1111C6.38229 14.0978 6.06229 12.9422 6.06229 11.7511C6.06229 8.26669 8.90674 5.42224 12.3912 5.42224C14.0801 5.42224 15.6623 6.08002 16.8712 7.27113C18.0623 8.46224 18.7201 10.0622 18.7201 11.7511C18.7201 15.2534 15.8756 18.08 12.3912 18.08ZM15.8578 13.3511C15.6623 13.2622 14.7378 12.8 14.5601 12.7289C14.3823 12.6578 14.2578 12.64 14.1334 12.8178C14.009 13.0134 13.6356 13.44 13.529 13.5645C13.4223 13.6889 13.3156 13.7067 13.1201 13.6178C12.9245 13.5289 12.3201 13.3156 11.5912 12.6756C11.0223 12.1778 10.649 11.5556 10.5245 11.36C10.4178 11.1645 10.5067 11.0756 10.6134 10.9689C10.7023 10.88 10.809 10.7556 10.8978 10.6311C10.9867 10.5245 11.0223 10.4356 11.0934 10.3111C11.1645 10.1867 11.129 10.08 11.0756 9.97335C11.0223 9.88446 10.649 8.94224 10.489 8.56891C10.329 8.19558 10.169 8.24891 10.0623 8.24891C9.95563 8.24891 9.83118 8.24891 9.68896 8.24891C9.56451 8.24891 9.35118 8.30224 9.1734 8.48002C8.99563 8.67558 8.51563 9.1378 8.51563 10.0622C8.51563 11.0045 9.19118 11.9111 9.29785 12.0356C9.38674 12.16 10.6312 14.08 12.5512 14.9156C13.0134 15.1111 13.3512 15.2356 13.6356 15.3245C14.0978 15.4667 14.5067 15.4489 14.8267 15.3956C15.2001 15.3422 15.9467 14.9334 16.1067 14.4889C16.2667 14.0445 16.2667 13.6711 16.2134 13.5822C16.1778 13.4934 16.0534 13.44 15.8578 13.3511Z" fill="white"/>
</svg>
